<?xml version="1.0" encoding="utf-8"?>
<svg version="1.1" xmlns:xlink="http://www.w3.org/1999/xlink" width="120px" height="95px" xmlns="http://www.w3.org/2000/svg">
  <defs>
    <linearGradient gradientUnits="userSpaceOnUse" x1="120" y1="0" x2="0" y2="95" id="LinearGradient16">
      <stop id="Stop17" stop-color="#84fab0" offset="0" />
      <stop id="Stop18" stop-color="#8fd3f4" offset="1" />
    </linearGradient>
  </defs>
  <g transform="matrix(1 0 0 1 -935 -780 )">
    <path d="M 101.05392527343751 33.09587286261794  C 111.636750234375 34.318691768622244  119.87756296875 43.29757263413915  119.87756296875 54.15725383254716  C 119.87756296875 65.84926377014544  110.32483968749999 75.36073955262383  98.5824010546875 75  L 76.827950625 75  C 75.50404828125001 75.36073955262383  74.42957671875 74.29077311197916  74.42957671875 72.97242172145243  C 74.42957671875 71.65287617924528  75.50404828125 70.58410389028104  76.827950625 70  L 98.5824010546875 70  C 107.6794332421875 70.58410389028104  115.08081515625 63.21494917575667  115.08081515625 54.15725383254716  C 115.08081515625 45.122247487961864  107.71660804687501 37.76742271029874  98.65075476562501 37.73040377481329  C 98.60158804687502 37.733986229854565  98.55362062500001 37.73637453321542  98.50445390625 37.737568684895834  C 97.80892546875002 37.75548107679835  97.13738074218749 37.46888292305425  96.668498671875 36.9553945496757  C 96.19961660156251 36.44071202461675  95.97896613281252 35.7480998489092  96.06410847656251 35.05907024493908  C 96.2200027734375 33.79803848516117  96.29195402343751 32.75314934650157  96.29195402343751 31.76916241032823  C 96.29195402343751 24.678246787784985  93.51943382812502 18.01364588246856  88.4852469140625 13.00056678704796  C 83.4498609375 7.987487691627362  76.75599937500002 5.226592202240571  69.63642644531252 5.226592202240571  C 64.08539003906253 5.226592202240571  58.76819507812502 6.91274464426101  54.260451328125015 10.102343037539312  C 49.85224007812502 13.222680283264545  46.53169148437502 17.53598229289505  44.65976062500002 22.575332841981133  C 44.37555328125002 23.339594585298737  43.72079718750002 23.905625866008254  42.92213871093752 24.07997306161557  C 42.123480234375016 24.253126105542453  41.29004531250002 24.009517645685932  40.712037187500016 23.433933034836873  C 38.451569765625024 21.176972705385225  35.44520812500002 19.935047372494108  32.24577726562502 19.935047372494108  C 25.645452304687524 19.935047372494108  20.275493085937523 25.281296887283805  20.275493085937523 31.85275337804639  C 20.275493085937523 31.889772313531843  20.280289804687524 31.96739263954403  20.286285820312518 32.042624662195365  C 20.293480898437522 32.15009901361046  20.300676093750017 32.25637909664898  20.30427363281252 32.3650475997445  C 20.343846796875024 33.46964455581761  19.61713945312502 34.45721406372839  18.54626554687502 34.75217127923546  C 14.75443640625002 35.795866149518474  11.33435519531252 38.08387465605347  8.915595117187522 41.195852723319575  C 6.418887890625022 44.406946080237816  5.0985830859375225 48.256914437156055  5.0985830859375225 52.33019044197131  C 5.0985830859375225 62.39456171997838  13.323806367187519 70.58410354019261  23.431753242187522 70  L 43.351447734375014 70  C 44.67535007812502 70.58410354019261  45.749821640625015 71.6528757124607  45.749821640625015 72.972421371364  C 45.749821640625015 74.29077276189072  44.675350078125014 75.36073920253538  43.351447734375014 75  L 23.431753242187515 75  C 10.678400039062518 75.36073920253538  0.30183527343751626 65.02887631436714  0.30183527343751626 52.330190441971325  C 0.30183527343751626 47.18933629987226  1.9687051171875165 42.327915401434765  5.121367617187516 38.27135752014546  C 7.7943553125000165 34.834568211969355  11.437485234375016 32.193088707498056  15.517119257812515 30.707554914750403  C 16.110716835937517 22.03437874656055  23.386184062500018 15.158411710151352  32.245777265625016 15.158411710151352  C 35.572321875000014 15.158411710151352  38.75016726562501 16.11732134433964  41.46272812500002 17.90378311099648  C 43.76636625000002 13.2513400402909  47.186447460937515 9.248519334709135  51.48193511718751 6.2093848700373595  C 56.80632515625002 2.4406192941725795  63.08406890625002 0.44995642320166773  69.63642632812503 0.44995642320166773  C 78.03793007812502 0.44995642320166773  85.93577531250001 3.7076219290487606  91.87654757812503 9.622291027908819  C 97.81731972656252 15.53815427844931  101.08870171875002 23.402884857753552  101.08870171875002 31.769162293632093  C 101.08870171875002 32.201447769261016  101.0767098046875 32.640898271668654  101.05392527343751 33.09587286261794  Z M 73.74124347656249 54.61342257517689  C 74.6778084375 55.546060639003535  74.6778084375 57.0590600370971  73.7412434765625 57.99169810092374  C 73.27356058593749 58.45742005699686  72.6595768359375 58.691475186713845  72.0455930859375 58.691475186713845  C 71.4316093359375 58.691475186713845  70.81762570312499 58.45742005699686  70.34994269531249 57.99169810092374  L 62 50.163986457104954  L 62 92.02164474007469  C 62.48807308593749 93.34119028228183  61.41480082031249 94.40996257124607  60.08969917968749 94.40996257124607  C 58.76459765624999 94.40996257124607  57.69132527343749 93.341190398978  58 92.02164474007469  L 58 50.163986457104954  L 49.82945566406249 57.99169810092374  C 48.89289070312499 58.9243361647504  47.37471996093749 58.9243361647504  46.43815499999999 57.99169810092374  C 45.501590039062485 57.0590600370971  45.501590039062485 55.546060639003535  46.43815499999999 54.61342257517689  L 58.394048906249985 42.70885235480543  C 59.33061386718749 41.77621429097877  60.84878460937499 41.77621429097877  61.785349570312476 42.70885235480543  L 73.74124347656249 54.61342257517689  Z " fill-rule="nonzero" fill="url(#LinearGradient16)" stroke="none" transform="matrix(1 0 0 1 935 780 )" />
  </g>
</svg>