<?xml version="1.0" encoding="utf-8"?>
<svg version="1.1" xmlns:xlink="http://www.w3.org/1999/xlink" width="50px" height="40px" xmlns="http://www.w3.org/2000/svg">
  <defs>
    <linearGradient gradientUnits="userSpaceOnUse" x1="50" y1="0" x2="0" y2="40" id="LinearGradient13">
      <stop id="Stop14" stop-color="#84fab0" offset="0" />
      <stop id="Stop15" stop-color="#8fd3f4" offset="1" />
    </linearGradient>
  </defs>
  <g transform="matrix(1 0 0 1 -275 -587 )">
    <path d="M 42.10580219726563 13.935104363207554  C 46.51531259765625 14.449975481525158  49.9489845703125 18.230556898584904  49.9489845703125 22.803054245283015  C 49.9489845703125 27.726005797955974  45.968683203124996 31.73083770636793  41.076000439453125 31.73083770636793  L 32.01164609375 31.73083770636793  C 31.460020117187504 31.73083770636793  31.0123236328125 31.280325520833333  31.0123236328125 30.725230198506285  C 31.0123236328125 30.169632075471696  31.460020117187497 29.71962269064465  32.01164609375 29.71962269064465  L 41.076000439453125 29.71962269064465  C 44.866430517578124 29.71962269064465  47.9503396484375 26.616820705581755  47.9503396484375 22.803054245283015  C 47.9503396484375 18.998841047562887  44.88192001953125 15.902072720125787  41.10448115234375 15.886485799921385  C 41.08399501953126 15.887994202044027  41.06400859375 15.888999803459123  41.0435224609375 15.889502604166665  C 40.75371894531251 15.897044663915095  40.473908642578124 15.776371757075474  40.27854111328125 15.560166126179244  C 40.083173583984376 15.343457694575473  39.99123588867188 15.05183151533019  40.026711865234375 14.761713787342769  C 40.09166782226563 14.23075304638365  40.12164750976563 13.790799724842769  40.12164750976563 13.376489435927677  C 40.12164750976563 10.390840752751574  38.966430761718755 7.584693003144656  36.86885288085938 5.473922857704404  C 34.770775390625005 3.3631527122641525  31.98166640625001 2.200670400943398  29.015177685546885 2.200670400943398  C 26.702245849609383 2.200670400943398  24.486747949218756 2.9106293238993723  22.608521386718756 4.2536181210691835  C 20.77176669921876 5.567444329795598  19.38820478515626 7.383571491745284  18.608233593750008 9.505403301886792  C 18.489813867187507 9.827197720125785  18.216998828125007 10.065526680424528  17.884224462890632 10.138936025943398  C 17.551450097656257 10.211842570754717  17.20418554687501 10.109270587657235  16.963348828125007 9.866919172562893  C 16.02148740234376 8.91662008647799  14.76883671875001 8.393704156839624  13.435740527343759 8.393704156839624  C 10.685605126953135 8.393704156839624  8.448122119140635 10.644756584119497  8.448122119140635 13.411685632861639  C 8.448122119140635 13.42727255306604  8.450120751953135 13.459954795597486  8.452619091796883 13.491631436713838  C 8.455617041015634 13.536883795204401  8.458615039062508 13.5816333038522  8.460114013671884 13.627388463050316  C 8.47660283203126 14.092481918238995  8.173808105468758 14.508300658411953  7.727610644531259 14.632493170204404  C 6.147681835937509 15.071943641902514  4.722647998046884 16.03531564465409  3.714831298828134 17.345622199292453  C 2.6745366210937593 18.697661507468553  2.1244096191406343 20.318700815644654  2.1244096191406343 22.0337643966195  C 2.1244096191406343 26.271394408411947  5.551585986328133 29.719622543238998  9.763230517578133 29.719622543238998  L 18.063103222656256 29.719622543238998  C 18.614729199218758 29.719622543238998  19.062425683593755 30.169631878930822  19.062425683593755 30.725230051100635  C 19.062425683593755 31.280325373427672  18.614729199218754 31.730837558962264  18.063103222656256 31.730837558962264  L 9.763230517578132 31.730837558962264  C 4.4493333496093825 31.730837558962264  0.12576469726563178 27.380579500786165  0.12576469726563178 22.033764396619503  C 0.12576469726563178 19.869194231525164  0.8202937988281318 17.822280169025163  2.133903173828132 16.11425579795598  C 3.247648046875007 14.667186615566044  4.765618847656257 13.55498471894655  6.465466357421882 12.929496806210697  C 6.712798681640632 9.277633156446548  9.744243359375007 6.382489141116359  13.435740527343757 6.382489141116359  C 14.821800781250005 6.382489141116359  16.145903027343756 6.786240566037743  17.276136718750006 7.538434994103781  C 18.235985937500008 5.579511595911958  19.66101977539063 3.8941134040880563  21.45080629882813 2.6144778400157302  C 23.669302148437506 1.0276291764937175  26.285028710937507 0.18945533608491272  29.015177636718757 0.18945533608491272  C 32.515804199218756 0.18945533608491272  35.80657304687501 1.561103970125794  38.28189482421876 4.051490959119503  C 40.757216552734384 6.5423807488207615  42.12029238281251 9.853846255896233  42.12029238281251 13.37648938679246  C 42.12029238281251 13.558504323899376  42.11529575195313 13.743536114386801  42.10580219726563 13.935104363207554  Z M 30.72551811523437 22.995125294811324  C 31.115753515625 23.387815005896226  31.115753515625 24.02486738404088  30.725518115234372 24.417557095125787  C 30.530650244140624 24.613650550314468  30.274823681640623 24.712200078616355  30.01899711914062 24.712200078616355  C 29.763170556640624 24.712200078616355  29.507344042968747 24.613650550314468  29.31247612304687 24.417557095125787  L 26 21.121678508254718  L 26 38.74595568003145  C 26.036697119140623 39.301553803066035  25.58950034179687 39.75156318789308  25.03737465820312 39.75156318789308  C 24.485249023437497 39.75156318789308  24.03805219726562 39.30155385220126  24 38.74595568003145  L 24 21.121678508254718  L 20.76227319335937 24.417557095125787  C 20.372037792968744 24.810246806210692  19.73946665039062 24.810246806210692  19.349231249999995 24.417557095125787  C 18.95899584960937 24.02486738404088  18.95899584960937 23.387815005896226  19.349231249999995 22.995125294811324  L 24.330853710937493 17.98267467570755  C 24.72108911132812 17.58998496462264  25.353660253906245 17.58998496462264  25.743895654296868 17.98267467570755  L 30.72551811523437 22.995125294811324  Z " fill-rule="nonzero" fill="url(#LinearGradient13)" stroke="none" transform="matrix(1 0 0 1 275 587 )" />
  </g>
</svg>